# xmcd
#
# Track frame offsets: 
#        150
#        13027
#        26952
#        45769
#        62368
#        80929
#        105101
#        124566
#        138434
#        154525
#
# Disc length: 2354 seconds
#
# Revision: 0
# Processed by: cddbd v1.5.1PL0 Copyright (c) Steve Scherf et al.
# Submitted via: ExactAudioCopy v0.95a5
#
DISCID=6f09300a
DTITLE=Michael Oneill - From The Beginning
DYEAR=2004
DGENRE=Americana
TTITLE0=Tell Her
TTITLE1=Run To Make It
TTITLE2=Crazae
TTITLE3=Here By Me
TTITLE4=Good Night My Sweet
TTITLE5=Punta Mita
TTITLE6=Down To The River
TTITLE7=Indigo
TTITLE8=Mas Cervasa
TTITLE9=Young Heart
EXTD=
EXTT0=
EXTT1=
EXTT2=
EXTT3=
EXTT4=
EXTT5=
EXTT6=
EXTT7=
EXTT8=
EXTT9=
PLAYORDER=
